<svg xmlns="http://www.w3.org/2000/svg" width="64" height="64" viewBox="0 0 48 48" xml:space="preserve"><g id="Layer_x0020_3" style="fill-rule:nonzero;clip-rule:nonzero;stroke:#000;stroke-miterlimit:4"><g><path style="fill:#fff;stroke:#fff;stroke-width:7.5901;stroke-linejoin:round" d="M25.6,6.9c0-0.3-0.3-0.3-0.5-0.2L8.4,23.6c-0.5,0.5-0.4,0.7,0,1l16.6,16.6c0.1,0.1,0.4,0.1,0.4-0.1v-10h13.6c0.3,0,0.5-0.2,0.5-0.4l0-13.3c0-0.3-0.2-0.5-0.5-0.5H25.5l0.1-10.1z"/><path style="stroke:none" d="M25.6,6.9c0-0.3-0.3-0.3-0.5-0.2L8.4,23.6c-0.5,0.5-0.4,0.7,0,1l16.6,16.6c0.1,0.1,0.4,0.1,0.4-0.1v-10h13.6c0.3,0,0.5-0.2,0.5-0.4l0-13.3c0-0.3-0.2-0.5-0.5-0.5H25.5l0.1-10.1z"/></g></g><g id="crop_x0020_marks" style="fill-rule:nonzero;clip-rule:nonzero;stroke:#000;stroke-miterlimit:4"><path style="fill:none;stroke:none" d="M48,48H0V0h48v48z"/></g></svg>